<svg width="48" height="48" viewBox="0 0 48 48" fill="none" xmlns="http://www.w3.org/2000/svg">
<rect width="48" height="48" rx="3" fill="#212735"/>
<mask id="mask0" mask-type="alpha" maskUnits="userSpaceOnUse" x="10" y="15" width="28" height="17">
<path d="M16.8452 20.0524H21.9144V20.4534H17.3099V23.4712H21.6398V23.8722H17.3099V27.1855H21.9672V27.5864H16.8452V20.0524ZM22.3685 20.0524H22.9071L25.2939 23.3657L27.7334 20.0524L31.0516 15.8438L25.6001 23.7139L28.4093 27.5864H27.8496L25.2939 24.0621L22.7276 27.5864H22.1784L25.0087 23.7139L22.3685 20.0524ZM28.61 20.4534V20.0524H34.3867V20.4534H31.7254V27.5864H31.2607V20.4534H28.61Z" fill="black"/>
<path d="M10.5 20.0508H11.0808L19.0904 31.9787L15.7804 27.5848L10.9858 20.6206L10.9647 27.5848H10.5V20.0508Z" fill="black"/>
<path d="M34.3282 27.0685C34.4243 27.0685 34.4944 26.9953 34.4944 26.9007C34.4944 26.8061 34.4243 26.7329 34.3282 26.7329C34.2333 26.7329 34.1621 26.8061 34.1621 26.9007C34.1621 26.9953 34.2333 27.0685 34.3282 27.0685ZM34.7848 26.627C34.7848 26.9063 34.9872 27.0888 35.2821 27.0888C35.5963 27.0888 35.7862 26.9007 35.7862 26.5741V25.4242H35.533V26.5729C35.533 26.7543 35.4415 26.8511 35.2799 26.8511C35.1352 26.8511 35.0369 26.761 35.0335 26.627H34.7848ZM36.1174 26.6124C36.1354 26.9029 36.3784 27.0888 36.7401 27.0888C37.1266 27.0888 37.3685 26.8939 37.3685 26.5831C37.3685 26.3387 37.2306 26.2035 36.8961 26.1258L36.7164 26.0819C36.5039 26.0324 36.418 25.9659 36.418 25.8499C36.418 25.7035 36.5514 25.6078 36.7514 25.6078C36.9413 25.6078 37.0724 25.7012 37.0961 25.851H37.3425C37.3278 25.5774 37.0859 25.3848 36.7548 25.3848C36.3988 25.3848 36.1614 25.5774 36.1614 25.8668C36.1614 26.1056 36.2959 26.2475 36.5909 26.3162L36.8011 26.3668C37.017 26.4175 37.1119 26.4919 37.1119 26.6157C37.1119 26.7599 36.9627 26.8646 36.7593 26.8646C36.5412 26.8646 36.3897 26.7667 36.3683 26.6124H36.1174Z" fill="black"/>
</mask>
<g mask="url(#mask0)">
<rect x="6" y="6" width="36" height="36" fill="white"/>
</g>
</svg>
