<svg width="48" height="48" viewBox="0 0 48 48" fill="none" xmlns="http://www.w3.org/2000/svg">
<rect width="48" height="48" rx="3" fill="#3AB97A"/>
<mask id="mask0" mask-type="alpha" maskUnits="userSpaceOnUse" x="10" y="13" width="28" height="22">
<path d="M25.9144 19.4456L24.9886 21.074L21.8224 15.5035L12.1028 32.6019H18.6836C18.6836 33.5013 19.4014 34.2303 20.2868 34.2303H12.1028C11.5301 34.2303 11.001 33.9198 10.7147 33.416C10.4284 32.9122 10.4284 32.2915 10.7148 31.7877L20.4344 14.6893C20.7207 14.1854 21.25 13.875 21.8228 13.875C22.3955 13.875 22.9248 14.1854 23.2111 14.6893L25.9144 19.4456V19.4456Z" fill="#00C58E"/>
<path d="M32.9304 31.7874L26.8398 21.0737L25.914 19.4453L24.9882 21.0737L18.8984 31.7874C18.612 32.2912 18.612 32.9119 18.8983 33.4157C19.1846 33.9195 19.7137 34.23 20.2864 34.23H31.5403C32.1131 34.23 32.6425 33.9198 32.929 33.416C33.2154 32.9121 33.2154 32.2913 32.929 31.7874H32.9304H32.9304ZM20.2864 32.6016L25.914 22.7022L31.5403 32.6016H20.2864V32.6016Z" fill="white"/>
<path d="M37.2859 33.4171C36.9995 33.9208 36.4705 34.2313 35.8978 34.2313H31.5413C32.4267 34.2313 33.1445 33.5022 33.1445 32.6028H35.8945L28.0913 18.8746L26.8408 21.075L25.915 19.4465L26.7032 18.0604C26.9896 17.5565 27.5189 17.2461 28.0916 17.2461C28.6644 17.2461 29.1936 17.5565 29.48 18.0604L37.2859 31.7886C37.5722 32.2925 37.5722 32.9132 37.2859 33.4171H37.2859Z" fill="#108775"/>
</mask>
<g mask="url(#mask0)">
<rect x="6" y="6" width="36" height="36" fill="white"/>
</g>
</svg>
